<?xml version="1.0" encoding="utf-8" ?>
<svg xmlns="http://www.w3.org/2000/svg" xmlns:xlink="http://www.w3.org/1999/xlink" width="9" height="16">
	<defs>
		<clipPath id="clip_0">
			<rect x="-1325" y="-302" width="1440" height="6859" clip-rule="evenodd"/>
		</clipPath>
	</defs>
	<g clip-path="url(#clip_0)">
		<path fill="rgb(255,255,255)" stroke="none" d="M8.84579 7.63119L1.63919 0.160429C1.53606 0.0536261 1.41739 0 1.28344 0C1.14944 0 1.03081 0.0536261 0.927738 0.160429L0.154641 0.962069C0.0514026 1.06893 0 1.19168 0 1.33083C0 1.46997 0.0514026 1.59272 0.154641 1.69958L6.23217 8.00017L0.154641 14.3009C0.0514026 14.4077 0 14.5307 0 14.6695C0 14.8085 0.0514026 14.9315 0.154641 15.0384L0.927792 15.8397C1.03087 15.9467 1.14949 16 1.28349 16C1.41744 16 1.53606 15.9466 1.63919 15.8397L8.84541 8.36893C8.94843 8.26212 9 8.13909 9 8.00017C9 7.86125 8.94881 7.73827 8.84579 7.63119Z"/>
	</g>
</svg>
